<svg width="63" height="65" viewBox="0 0 63 65" fill="none" xmlns="http://www.w3.org/2000/svg">
<path d="M59.6779 33.3419C59.4164 32.8068 59.4164 32.1931 59.6779 31.6581L62.1022 26.6987C63.4519 23.9374 62.3825 20.6461 59.6675 19.2056L54.7912 16.6183C54.2651 16.3393 53.9045 15.8426 53.8015 15.2562L52.8478 9.819C52.3168 6.79169 49.5165 4.75741 46.4738 5.1879L41.0081 5.96104C40.4182 6.04433 39.8348 5.85466 39.4069 5.44067L35.4395 1.60264C33.2304 -0.534476 29.7697 -0.534603 27.5607 1.60264L23.5932 5.44105C23.1651 5.85517 22.5818 6.04445 21.9919 5.96143L16.5263 5.18829C13.4826 4.75754 10.6833 6.79208 10.1522 9.81938L9.19856 15.2564C9.0956 15.8429 8.73493 16.3394 8.20896 16.6186L3.33272 19.2059C0.617719 20.6463 -0.451728 23.9378 0.89803 26.6991L3.32219 31.6584C3.58371 32.1935 3.58371 32.8072 3.32219 33.3421L0.897903 38.3014C-0.451855 41.0627 0.617592 44.354 3.3326 45.7945L8.20884 48.3818C8.73493 48.6609 9.0956 49.1575 9.19856 49.7439L10.1522 55.1811C10.6357 57.937 12.9988 59.8697 15.7146 59.8695C15.9821 59.8695 16.2536 59.8507 16.5264 59.8121L21.9921 59.039C22.5815 58.9553 23.1652 59.1453 23.5933 59.5593L27.5607 63.3974C28.6654 64.466 30.0825 65.0003 31.5 65.0001C32.9172 65 34.3351 64.4658 35.4394 63.3974L39.4069 59.5593C39.835 59.1453 40.4184 58.9562 41.0081 59.039L46.4738 59.8121C49.5179 60.2427 52.3168 58.2083 52.8478 55.181L53.8016 49.744C53.9046 49.1575 54.2653 48.661 54.7912 48.3818L59.6675 45.7945C62.3825 44.3541 63.4519 41.0626 62.1022 38.3013L59.6779 33.3419ZM24.0021 15.6299C27.7919 15.6299 30.8752 18.7132 30.8752 22.5029C30.8752 26.2927 27.7919 29.376 24.0021 29.376C20.2123 29.376 17.129 26.2927 17.129 22.5029C17.129 18.7132 20.2123 15.6299 24.0021 15.6299ZM20.4545 46.1962C20.0885 46.5622 19.6088 46.7453 19.1292 46.7453C18.6495 46.7453 18.1696 46.5623 17.8038 46.1962C17.0718 45.4642 17.0718 44.2773 17.8038 43.5453L42.5454 18.8037C43.2773 18.0717 44.4643 18.0717 45.1963 18.8037C45.9283 19.5357 45.9283 20.7226 45.1963 21.4546L20.4545 46.1962ZM38.9977 49.3703C35.2079 49.3703 32.1246 46.287 32.1246 42.4972C32.1246 38.7074 35.2079 35.6241 38.9977 35.6241C42.7875 35.6241 45.8708 38.7074 45.8708 42.4972C45.8708 46.287 42.7875 49.3703 38.9977 49.3703Z" fill="#FE7265"/>
</svg>
