<svg width="76" height="76" viewBox="0 0 76 76" fill="none" xmlns="http://www.w3.org/2000/svg">
<g clip-path="url(#clip0)">
<path d="M46.8217 32.1526V16.4626C46.8217 15.1321 45.7431 14.0533 44.4124 14.0533H23.3237V6.28541C23.3237 4.15966 20.7581 3.07487 19.2334 4.55945L0.728042 22.5815C-0.24381 23.5279 -0.241551 25.0892 0.728042 26.0335L19.2334 44.0559C20.7561 45.5386 23.3237 44.4578 23.3237 42.3299V34.562H44.4124C45.7431 34.5619 46.8217 33.4831 46.8217 32.1526Z" fill="#FE7265"/>
<path d="M75.272 49.969L56.7668 31.9467C55.2441 30.4639 52.6765 31.5448 52.6765 33.6727V41.4406H31.5878C30.2571 41.4406 29.1785 42.5193 29.1785 43.8499V59.5398C29.1785 60.8704 30.2571 61.9491 31.5878 61.9491H52.6765V69.717C52.6765 71.8494 55.2512 72.9188 56.7668 71.443L75.2721 53.4208C76.244 52.4746 76.2417 50.9133 75.272 49.969Z" fill="#FE7265"/>
</g>
<defs>
<clipPath id="clip0">
<rect width="76" height="76" fill="white"/>
</clipPath>
</defs>
</svg>
