<svg width="90" height="90" viewBox="0 0 90 90" fill="none" xmlns="http://www.w3.org/2000/svg">
<path d="M74.25 58.1994C70.0318 58.1994 66.6 61.632 66.6 65.8494C66.6 70.0676 70.0318 73.4994 74.25 73.4994C78.4674 73.4994 81.9 70.0676 81.9 65.8494C81.9 61.632 78.4674 58.1994 74.25 58.1994ZM74.25 68.0994C73.009 68.0994 72 67.0904 72 65.8494C72 64.6084 73.009 63.5994 74.25 63.5994C75.491 63.5994 76.5 64.6084 76.5 65.8494C76.5 67.0904 75.491 68.0994 74.25 68.0994Z" fill="#FE7265"/>
<path d="M73.5174 26.3997H60.3C59.3054 26.3997 58.5 27.2062 58.5 28.1997V63.2997C58.5 64.2932 59.3054 65.0997 60.3 65.0997H62.209C63.1 65.0997 63.8893 64.4579 64.0044 63.5743C64.7109 58.1616 69.0282 54.8047 74.2509 54.8047C79.4735 54.8047 83.7909 58.1618 84.4974 63.5743C84.6125 64.4581 85.4009 65.0997 86.2928 65.0997H88.1999C89.1934 65.0997 89.9999 64.2932 89.9999 63.2997V45.7497C89.9999 45.3268 89.8513 44.9181 89.5804 44.595L74.8978 27.045C74.556 26.6365 74.0501 26.3997 73.5174 26.3997ZM62.1 40.7997V31.7997C62.1 30.8062 62.9054 29.9997 63.9 29.9997H71.829C72.3626 29.9997 72.8694 30.2374 73.2113 30.6477L80.711 39.6477C81.6875 40.8203 80.8541 42.5997 79.3278 42.5997H63.9C62.9054 42.5997 62.1 41.7943 62.1 40.7997Z" fill="#FE7265"/>
<path d="M1.8 65.1006H6.40897C7.3 65.1006 8.08926 64.4588 8.20441 63.5752C8.91088 58.1625 13.2282 54.8056 18.4509 54.8056C23.6735 54.8056 27.9909 58.1627 28.6974 63.5752C28.8125 64.459 29.6009 65.1006 30.4928 65.1006H53.1C54.0937 65.1006 54.9 64.2941 54.9 63.3006V18.3006C54.9 17.3071 54.0935 16.5006 53.1 16.5006H1.8C0.805441 16.5006 0 17.3071 0 18.3006V63.3006C0 64.2943 0.805441 65.1006 1.8 65.1006Z" fill="#FE7265"/>
<path d="M18.45 58.1994C14.2318 58.1994 10.8 61.632 10.8 65.8494C10.8 70.0676 14.2318 73.4994 18.45 73.4994C22.6674 73.4994 26.1 70.0676 26.1 65.8494C26.1 61.632 22.6674 58.1994 18.45 58.1994ZM18.45 68.0994C17.209 68.0994 16.2 67.0904 16.2 65.8494C16.2 64.6084 17.209 63.5994 18.45 63.5994C19.691 63.5994 20.7 64.6084 20.7 65.8494C20.7 67.0904 19.691 68.0994 18.45 68.0994Z" fill="#FE7265"/>
</svg>
