<svg width="81" height="81" viewBox="0 0 81 81" fill="none" xmlns="http://www.w3.org/2000/svg">
<path d="M56.4298 64.3661C55.0624 64.3788 53.7686 63.7467 52.9394 62.6591C52.6611 62.6923 52.3801 62.6972 52.1004 62.6753V78.8304L55.5717 76.2271C56.0858 75.8408 56.7935 75.8408 57.3077 76.2271L60.7789 78.8304V62.6753C60.4901 62.6993 60.1991 62.6937 59.9109 62.6591C59.0832 63.7439 57.7936 64.376 56.4298 64.3661Z" fill="#FE7265"/>
<path d="M0 67.2589C0 69.6553 1.94293 71.5982 4.33929 71.5982H49.2132V65.8125H0L0 67.2589Z" fill="#FE7265"/>
<path d="M62.6449 52.8236C62.2593 52.6866 61.9492 52.3921 61.7931 52.0142C61.6364 51.6357 61.647 51.2091 61.8235 50.839C62.0968 50.2655 61.981 49.5819 61.5332 49.1313C61.0848 48.6807 60.4018 48.5606 59.8269 48.8311C59.4575 49.0077 59.0302 49.019 58.6517 48.8629C58.2724 48.7061 57.9786 48.396 57.8409 48.0097C57.6297 47.4108 57.0633 47.0096 56.4284 47.0096C55.7927 47.0096 55.2263 47.4108 55.0151 48.0097C54.8781 48.396 54.5836 48.7061 54.205 48.8629C53.8258 49.019 53.3985 49.0077 53.0291 48.8311C52.4535 48.5599 51.7698 48.6807 51.3221 49.1313C50.8736 49.5826 50.7578 50.2669 51.0332 50.8404C51.2084 51.2098 51.2197 51.6364 51.0629 52.0142C50.9068 52.3921 50.5982 52.6859 50.2125 52.8236C49.6129 53.0369 49.2118 53.6047 49.2118 54.2411C49.2118 54.8774 49.6129 55.4453 50.2125 55.6585C50.5982 55.7963 50.9075 56.0901 51.0636 56.4686C51.2204 56.8465 51.2091 57.2738 51.0332 57.6431C50.7592 58.2166 50.875 58.9003 51.3235 59.3509C51.7713 59.8015 52.4542 59.9216 53.0291 59.6511C53.3985 59.4745 53.8258 59.4632 54.205 59.6193C54.5836 59.7761 54.8781 60.0861 55.0151 60.4724C55.2263 61.0714 55.7927 61.4725 56.4284 61.4725C57.0633 61.4725 57.6297 61.0714 57.8409 60.4724C57.9786 60.0861 58.2724 59.7761 58.6517 59.6193C59.0302 59.4632 59.4575 59.4745 59.8269 59.6511C60.4018 59.9216 61.0848 59.8015 61.5332 59.3509C61.981 58.9003 62.0968 58.2166 61.8235 57.6431C61.647 57.2731 61.6364 56.8465 61.7931 56.4679C61.9492 56.0901 62.2593 55.7956 62.6449 55.6585C63.2431 55.4438 63.6429 54.8767 63.6429 54.2411C63.6429 53.6054 63.2431 53.0383 62.6449 52.8236Z" fill="#FE7265"/>
<path d="M11.5714 6.5089V62.9196H49.2132V61.3129C48.2901 60.3615 47.8515 59.0415 48.0217 57.7272C46.9461 56.8902 46.3175 55.6034 46.3175 54.2411C46.3175 52.8787 46.9461 51.5919 48.0217 50.7549C47.8508 49.4046 48.3134 48.0506 49.2746 47.0866C50.2359 46.1225 51.5884 45.6564 52.9394 45.8231C53.7742 44.746 55.0596 44.1161 56.422 44.1161C57.7844 44.1161 59.0705 44.746 59.9053 45.8231C61.2564 45.6557 62.6089 46.1218 63.5708 47.0859C64.5321 48.0506 64.994 49.4046 64.823 50.7549C65.8987 51.5919 66.5273 52.8787 66.5273 54.2411C66.5273 55.6034 65.8987 56.8902 64.823 57.7272C64.9904 59.0225 64.5653 60.3241 63.6662 61.2705V71.3319C64.1217 71.5007 64.6034 71.5904 65.0893 71.5982C67.4857 71.5982 69.4286 69.6553 69.4286 67.2589V6.5089C69.4321 6.05831 69.4773 5.60912 69.5649 5.1663C69.5903 5.02928 69.6327 4.89933 69.6659 4.76443C69.7372 4.46992 69.8276 4.18035 69.935 3.89643C69.9915 3.75235 70.0522 3.61605 70.1172 3.47691C70.2408 3.21348 70.3792 2.95781 70.5339 2.71062C70.6087 2.58914 70.678 2.46625 70.7634 2.35042C70.8044 2.29109 70.8348 2.22612 70.8778 2.16962H15.9107C13.5144 2.16962 11.5714 4.11255 11.5714 6.5089ZM62.1964 36.8839H37.6072V33.9911H62.1964V36.8839ZM62.1964 29.6518H28.9286V26.7589H62.1964V29.6518ZM44.8393 10.8482H50.625V13.741H44.8393V10.8482ZM30.375 10.8482H41.9464V13.741H30.375V10.8482ZM26.0357 18.0803H54.9643V20.9732H26.0357V18.0803ZM18.8036 26.7589H26.0357V29.6518H18.8036V26.7589ZM18.8036 33.9911H34.7143V36.8839H18.8036V33.9911ZM18.8036 41.2232H47.7322V44.1161H18.8036V41.2232ZM18.8036 48.4553H43.3929V51.3482H18.8036V48.4553Z" fill="#FE7265"/>
<path d="M76.6607 2.16962C74.2643 2.16962 72.3214 4.11255 72.3214 6.5089V7.95533H81V6.5089C81 4.11255 79.0571 2.16962 76.6607 2.16962Z" fill="#FE7265"/>
</svg>
