<svg width="42" height="32" viewBox="0 0 42 32" fill="none" xmlns="http://www.w3.org/2000/svg">
<path d="M13.4692 31.4965C15.1884 31.4965 16.5821 30.1028 16.5821 28.3836C16.5821 26.6644 15.1884 25.2707 13.4692 25.2707C11.75 25.2707 10.3563 26.6644 10.3563 28.3836C10.3563 30.1028 11.75 31.4965 13.4692 31.4965Z" fill="#838387"/>
<path d="M37.3308 31.4965C39.05 31.4965 40.4437 30.1028 40.4437 28.3836C40.4437 26.6644 39.05 25.2707 37.3308 25.2707C35.6116 25.2707 34.2179 26.6644 34.2179 28.3836C34.2179 30.1028 35.6116 31.4965 37.3308 31.4965Z" fill="#838387"/>
<path d="M42 6.55915C42 6.5099 41.9761 6.46812 41.9731 6.41888C41.9612 6.31292 41.9418 6.21443 41.912 6.11594C41.8806 6.02044 41.8478 5.92941 41.8045 5.84286C41.7583 5.75481 41.7045 5.6802 41.6419 5.6026C41.5792 5.52202 41.5135 5.45039 41.4344 5.38473C41.3613 5.32206 41.2837 5.2743 41.2001 5.22655C41.1061 5.17432 41.0136 5.13104 40.9091 5.09672C40.8644 5.0818 40.8286 5.05046 40.7823 5.04002C40.7226 5.02659 40.6689 5.04151 40.6107 5.03703C40.5525 5.03255 40.5033 5.0042 40.4451 5.0042L10.3549 4.99973C10.3325 4.99973 10.3146 5.01166 10.2922 5.01316L9.27149 1.61376C9.07451 0.955668 8.46715 0.50351 7.78071 0.50351H1.55644C0.696891 0.50351 0 1.2004 0 2.05995C0 2.9195 0.696891 3.61639 1.55644 3.61639H6.6242L12.5172 23.2577C12.7142 23.9158 13.3215 24.3649 14.008 24.3649H36.8308C37.562 24.3649 38.1917 23.8605 38.3514 23.1472L41.9627 6.89939C41.9761 6.84268 41.9597 6.78747 41.9657 6.73076C41.9731 6.67107 42 6.61884 42 6.55915ZM35.5847 21.2521H15.166L11.2234 8.11111L38.5036 8.11559L35.5847 21.2521Z" fill="#838387"/>
</svg>
