<svg width="37" height="33" viewBox="0 0 37 33" fill="none" xmlns="http://www.w3.org/2000/svg">
<path d="M34.3777 3.20325C32.6294 1.4961 30.214 0.642883 27.1303 0.642883C26.277 0.642883 25.4061 0.790847 24.5184 1.08663C23.6304 1.38263 22.8043 1.78197 22.0411 2.28437C21.2768 2.78662 20.62 3.25828 20.069 3.69863C19.5187 4.13912 18.9955 4.60724 18.5 5.10262C18.0043 4.60724 17.4813 4.13912 16.9308 3.69863C16.3801 3.25828 15.723 2.78691 14.9589 2.28437C14.1949 1.78175 13.3689 1.3827 12.4812 1.08663C11.5934 0.790919 10.7227 0.642883 9.8693 0.642883C6.78586 0.642883 4.37028 1.49631 2.62219 3.20325C0.874113 4.91003 0 7.27745 0 10.3057C0 11.228 0.161993 12.1781 0.485329 13.1549C0.808665 14.1322 1.17713 14.9651 1.58999 15.6532C2.00279 16.3413 2.4709 17.0122 2.99398 17.6661C3.51706 18.32 3.89934 18.7706 4.13994 19.0184C4.38076 19.2661 4.57009 19.4453 4.70771 19.5555L17.5915 31.9852C17.8393 32.233 18.1421 32.3572 18.4999 32.3572C18.8578 32.3572 19.1608 32.233 19.4085 31.9852L32.2718 19.5963C35.424 16.4447 36.9999 13.3476 36.9999 10.3054C37 7.27695 36.126 4.90975 34.3777 3.20325ZM30.4754 17.6558L18.5 29.1975L6.50418 17.635C3.93007 15.0615 2.64324 12.618 2.64324 10.3054C2.64324 9.19064 2.7912 8.20631 3.08699 7.3531C3.38299 6.49974 3.7615 5.82161 4.2226 5.31921C4.68378 4.81667 5.24461 4.40749 5.90531 4.09067C6.56637 3.77413 7.21326 3.56072 7.84634 3.45065C8.47941 3.34072 9.15378 3.28569 9.86966 3.28569C10.5853 3.28569 11.3563 3.46099 12.1822 3.8121C13.0079 4.16306 13.7684 4.60355 14.4635 5.13343C15.1587 5.66367 15.754 6.15912 16.2497 6.62008C16.7452 7.08147 17.158 7.50446 17.4884 7.88992C17.736 8.19286 18.0735 8.34429 18.5001 8.34429C18.9268 8.34429 19.2639 8.19286 19.5118 7.88992C19.8422 7.50446 20.2552 7.08125 20.7507 6.62008C21.2462 6.15912 21.8416 5.66388 22.5365 5.13343C23.2317 4.60355 23.9922 4.16306 24.8184 3.8121C25.644 3.46106 26.4152 3.28569 27.1309 3.28569C27.8467 3.28569 28.5208 3.34072 29.1542 3.45065C29.7875 3.56064 30.4344 3.77413 31.0952 4.09067C31.756 4.40742 32.3168 4.81689 32.7778 5.31921C33.2389 5.82161 33.6176 6.49974 33.9136 7.3531C34.2091 8.20631 34.3571 9.19064 34.3571 10.3054C34.3569 12.618 33.0633 15.0683 30.4754 17.6558Z" fill="#838387"/>
</svg>
