<svg width="14" height="14" viewBox="0 0 14 14" fill="none" xmlns="http://www.w3.org/2000/svg">
<path d="M0.95463 11.7725H3.18194V13.6819C3.18194 13.7748 3.21166 13.8508 3.27146 13.9103C3.3311 13.9701 3.40734 14 3.50021 14H5.16064C5.24681 14 5.32138 13.9701 5.38436 13.9103C5.44735 13.8508 5.47874 13.7747 5.47874 13.6819V11.7725H10.5C10.5927 11.7725 10.669 11.743 10.7288 11.6832C10.7886 11.6234 10.8183 11.5473 10.8183 11.4544V10.1816C10.8183 10.0893 10.7886 10.0127 10.7288 9.95322C10.6691 9.89339 10.5927 9.86348 10.5 9.86348H5.47858V8.69013H8.85926C10.1849 8.69013 11.2669 8.28618 12.1057 7.47713C12.9442 6.66893 13.3636 5.62492 13.3636 4.34507C13.3636 3.06606 12.9442 2.02203 12.1057 1.213C11.2671 0.404774 10.1849 0 8.85926 0H3.50005C3.40715 0 3.33107 0.0298867 3.2713 0.0893581C3.21166 0.149159 3.18178 0.225728 3.18178 0.318105V6.57252H0.95463C0.861759 6.57252 0.785656 6.60394 0.725883 6.6669C0.666274 6.72988 0.63636 6.80445 0.63636 6.89059V8.37197C0.63636 8.46487 0.666082 8.54097 0.725883 8.60075C0.785684 8.66058 0.861594 8.69011 0.95463 8.69011H3.18194V9.86345H0.95463C0.861759 9.86345 0.785656 9.89337 0.725883 9.9532C0.666274 10.0126 0.63636 10.0891 0.63636 10.1816V11.4544C0.63636 11.5473 0.666082 11.6234 0.725883 11.6831C0.785656 11.743 0.861731 11.7725 0.95463 11.7725ZM5.47858 2.11811H8.6604C9.36297 2.11811 9.92963 2.32353 10.3606 2.73451C10.7914 3.14551 11.0069 3.68262 11.0069 4.34523C11.0069 5.00817 10.7914 5.54545 10.3606 5.95596C9.92963 6.36729 9.36294 6.57271 8.6604 6.57271H5.47858V2.11811Z" fill="#4F52FF"/>
</svg>
