<svg width="98" height="98" viewBox="0 0 98 98" fill="none" xmlns="http://www.w3.org/2000/svg">
<g clip-path="url(#clip0)">
<path d="M11.2292 0C5.02658 0 0 5.02658 0 11.2292V46.9583H46.9583V0H11.2292ZM29.6042 27.5625H25.5208V31.6458C25.5208 33.3363 24.1488 34.7083 22.4583 34.7083C20.7678 34.7083 19.3958 33.3363 19.3958 31.6458V27.5625H15.3125C13.622 27.5625 12.25 26.1905 12.25 24.5C12.25 22.8095 13.622 21.4375 15.3125 21.4375H19.3958V17.3542C19.3958 15.6637 20.7678 14.2917 22.4583 14.2917C24.1488 14.2917 25.5208 15.6637 25.5208 17.3542V21.4375H29.6042C31.2947 21.4375 32.6667 22.8095 32.6667 24.5C32.6667 26.1905 31.2947 27.5625 29.6042 27.5625Z" fill="url(#paint0_linear)"/>
<path d="M-7.62939e-06 51.0416V86.7708C-7.62939e-06 92.9734 5.02658 98 11.2292 98H46.9583V51.0416H-7.62939e-06ZM30.7475 77.4608C31.9439 78.6572 31.9439 80.5968 30.7475 81.7932C30.1513 82.3894 29.3673 82.6875 28.5833 82.6875C27.7993 82.6875 27.0153 82.3894 26.4192 81.7891L23.4792 78.8491L20.5392 81.7891C19.943 82.3853 19.159 82.6875 18.375 82.6875C17.591 82.6875 16.807 82.3894 16.2108 81.7891C15.0144 80.5927 15.0144 78.6531 16.2108 77.4567L19.1508 74.5167L16.2108 71.5767C15.0144 70.3803 15.0144 68.4407 16.2108 67.2443C17.4072 66.0479 19.3468 66.0479 20.5432 67.2443L23.4832 70.1843L26.4232 67.2443C27.6197 66.0479 29.5592 66.0479 30.7557 67.2443C31.9521 68.4407 31.9521 70.3803 30.7557 71.5767L27.8157 74.5167L30.7475 77.4608Z" fill="url(#paint1_linear)"/>
<path d="M86.7708 0H51.0417V46.9583H98V11.2292C98 5.02658 92.9734 0 86.7708 0ZM84.7292 26.5417H66.3542C64.6637 26.5417 63.2917 25.1697 63.2917 23.4792C63.2917 21.7887 64.6637 20.4167 66.3542 20.4167H84.7292C86.4197 20.4167 87.7917 21.7887 87.7917 23.4792C87.7917 25.1697 86.4197 26.5417 84.7292 26.5417Z" fill="url(#paint2_linear)"/>
<path d="M51.0417 51.0416V98H86.7708C92.9734 98 98 92.9734 98 86.7708V51.0416H51.0417ZM83.7083 83.7083H65.3333C63.6428 83.7083 62.2708 82.3363 62.2708 80.6458C62.2708 78.9553 63.6428 77.5833 65.3333 77.5833H83.7083C85.3988 77.5833 86.7708 78.9553 86.7708 80.6458C86.7708 82.3363 85.3988 83.7083 83.7083 83.7083ZM83.7083 71.4583H65.3333C63.6428 71.4583 62.2708 70.0863 62.2708 68.3958C62.2708 66.7053 63.6428 65.3333 65.3333 65.3333H83.7083C85.3988 65.3333 86.7708 66.7053 86.7708 68.3958C86.7708 70.0863 85.3988 71.4583 83.7083 71.4583Z" fill="url(#paint3_linear)"/>
</g>
<defs>
<linearGradient id="paint0_linear" x1="27.6572" y1="14.8021" x2="49.6342" y2="16.7487" gradientUnits="userSpaceOnUse">
<stop offset="0.0107221" stop-color="#FE7265"/>
<stop offset="0.986056" stop-color="#FF867B"/>
</linearGradient>
<linearGradient id="paint1_linear" x1="27.6572" y1="65.8437" x2="49.6342" y2="67.7903" gradientUnits="userSpaceOnUse">
<stop offset="0.0107221" stop-color="#FE7265"/>
<stop offset="0.986056" stop-color="#FF867B"/>
</linearGradient>
<linearGradient id="paint2_linear" x1="78.6988" y1="14.8021" x2="100.676" y2="16.7487" gradientUnits="userSpaceOnUse">
<stop offset="0.0107221" stop-color="#FE7265"/>
<stop offset="0.986056" stop-color="#FF867B"/>
</linearGradient>
<linearGradient id="paint3_linear" x1="78.6988" y1="65.8437" x2="100.676" y2="67.7903" gradientUnits="userSpaceOnUse">
<stop offset="0.0107221" stop-color="#FE7265"/>
<stop offset="0.986056" stop-color="#FF867B"/>
</linearGradient>
<clipPath id="clip0">
<rect width="98" height="98" fill="white"/>
</clipPath>
</defs>
</svg>
