<svg width="121" height="121" viewBox="0 0 121 121" fill="none" xmlns="http://www.w3.org/2000/svg">
<g clip-path="url(#clip0)">
<path d="M104.5 38.4999H88V16.5H11.0001C4.92242 16.5 0 21.4224 0 27.5001V88.0002H11.0001C11.0001 97.1028 18.3975 104.5 27.5001 104.5C36.6027 104.5 44.0001 97.1028 44.0001 88.0002H77.0001C77.0001 97.1028 84.3976 104.5 93.5002 104.5C102.603 104.5 110 97.1028 110 88.0002H121V60.5001L104.5 38.4999ZM27.5001 96.25C22.935 96.25 19.2501 92.565 19.2501 88C19.2501 83.4349 22.935 79.75 27.5001 79.75C32.0652 79.75 35.7501 83.4349 35.7501 88C35.7501 92.565 32.0649 96.25 27.5001 96.25ZM93.5002 96.25C88.9351 96.25 85.2501 92.565 85.2501 88C85.2501 83.4349 88.9351 79.75 93.5002 79.75C98.0652 79.75 101.75 83.4349 101.75 88C101.75 92.565 98.065 96.25 93.5002 96.25ZM88 60.5001V46.7502H101.75L112.557 60.5001H88Z" fill="url(#paint0_linear)"/>
</g>
<defs>
<linearGradient id="paint0_linear" x1="71.2658" y1="44.2392" x2="127.505" y2="51.0887" gradientUnits="userSpaceOnUse">
<stop offset="0.0107221" stop-color="#FE7265"/>
<stop offset="0.986056" stop-color="#FF867B"/>
</linearGradient>
<clipPath id="clip0">
<rect width="121" height="121" fill="white"/>
</clipPath>
</defs>
</svg>
