<svg width="23" height="23" viewBox="0 0 23 23" fill="none" xmlns="http://www.w3.org/2000/svg">
<path d="M21.1545 15.0969C19.7463 15.0969 18.3637 14.8766 17.0535 14.4436C16.4115 14.2247 15.6222 14.4256 15.2304 14.828L12.6443 16.7802C9.64509 15.1793 7.79766 13.3325 6.21857 10.3558L8.11337 7.83707C8.60565 7.34545 8.78223 6.62729 8.57067 5.95347C8.13583 4.63636 7.91494 3.25438 7.91494 1.84563C7.915 0.82794 7.08706 0 6.06942 0H1.84557C0.82794 0 0 0.82794 0 1.84557C0 13.5103 9.48978 23 21.1545 23C22.1721 23 23.0001 22.1721 23.0001 21.1544V16.9424C23 15.9248 22.1721 15.0969 21.1545 15.0969Z" fill="url(#paint0_linear)"/>
<defs>
<linearGradient id="paint0_linear" x1="13.5464" y1="7.25" x2="24.3107" y2="8.20345" gradientUnits="userSpaceOnUse">
<stop offset="0.0107221" stop-color="#FE7265"/>
<stop offset="0.986056" stop-color="#FF867B"/>
</linearGradient>
</defs>
</svg>
