<svg width="34" height="34" viewBox="0 0 34 34" fill="none" xmlns="http://www.w3.org/2000/svg">
<path d="M29.0209 21.9791C27.1693 20.1276 24.9654 18.7569 22.5608 17.9272C25.1362 16.1534 26.8281 13.1848 26.8281 9.82812C26.8281 4.40891 22.4192 0 17 0C11.5808 0 7.17188 4.40891 7.17188 9.82812C7.17188 13.1848 8.86384 16.1534 11.4393 17.9272C9.0347 18.7569 6.83081 20.1276 4.97921 21.9791C1.76833 25.1901 0 29.4591 0 34H2.65625C2.65625 26.0908 9.09082 19.6562 17 19.6562C24.9092 19.6562 31.3438 26.0908 31.3438 34H34C34 29.4591 32.2317 25.1901 29.0209 21.9791ZM17 17C13.0454 17 9.82812 13.7828 9.82812 9.82812C9.82812 5.8735 13.0454 2.65625 17 2.65625C20.9546 2.65625 24.1719 5.8735 24.1719 9.82812C24.1719 13.7828 20.9546 17 17 17Z" fill="#838387"/>
</svg>
