<svg width="32" height="32" viewBox="0 0 32 32" fill="none" xmlns="http://www.w3.org/2000/svg">
<g clip-path="url(#clip0)">
<path d="M29.9609 0H2.04361C0.914544 0 0 0.914544 0 2.04135V29.9587C0 31.0855 0.914544 32 2.04361 32H29.9587C31.0855 32 32 31.0855 32 29.9587V2.04135C32.0023 0.912286 31.0877 0 29.9609 0ZM26.5444 19.499C27.1292 20.0951 28.3983 21.0955 28.1679 22.1139C27.9557 23.0488 26.5602 22.7078 25.2053 22.762C23.6585 22.8275 22.7417 22.8613 21.8113 22.1139C21.3732 21.7594 21.1158 21.3394 20.6958 20.8697C20.3142 20.4451 19.8332 19.6841 19.1783 19.7135C18.0018 19.7722 18.3699 21.4116 17.9522 22.5294C11.4126 23.5591 8.7864 19.5193 6.46955 15.5992C5.34726 13.7001 3.72592 9.6219 3.72592 9.6219L8.35058 9.6061C8.35058 9.6061 9.83417 12.3046 10.2271 13.0001C10.5613 13.5917 10.9294 14.0614 11.3087 14.5898C11.6271 15.0279 12.1307 15.886 12.6817 15.816C13.5782 15.7008 13.7407 12.2233 13.1852 11.0581C12.9639 10.5861 12.4333 10.4213 11.8846 10.261C12.0697 9.09124 17.0715 8.84737 17.8799 9.75513C19.0541 11.0739 17.067 14.7456 18.6748 15.816C20.9329 14.6327 22.8613 9.67836 22.8613 9.67836L28.2763 9.71223C28.2763 9.71223 27.4295 12.3904 26.5421 13.5782C26.025 14.2737 24.3088 15.8227 24.3765 16.9721C24.4307 17.8822 25.8263 18.7673 26.5444 19.499Z" fill="url(#paint0_linear)"/>
</g>
<defs>
<linearGradient id="paint0_linear" x1="18.8471" y1="10.087" x2="33.8235" y2="11.4135" gradientUnits="userSpaceOnUse">
<stop offset="0.0107221" stop-color="#FE7265"/>
<stop offset="0.986056" stop-color="#FF867B"/>
</linearGradient>
<clipPath id="clip0">
<rect width="32" height="32" fill="white"/>
</clipPath>
</defs>
</svg>
